name rise30.8019peak61.5557fall86.2505.mot
datacolumns 19
datarows 11
range 23.60491500000000 23.62157500000000
endheader
time	ground_force1_vx	ground_force1_vy	ground_force1_vz	ground_force1_px	ground_force1_py	ground_force1_pz	ground_force2_vx	ground_force2_vy	ground_force2_vz	ground_force2_px	ground_force2_py	ground_force2_pz	ground_torque1_x	ground_torque1_y	ground_torque1_z	ground_torque2_x	ground_torque2_y	ground_torque2_z	
23.60491500000000	-7.06360100000000	46.29169400000000	-12.17159900000000	0.29813000000000	0.00000000000000	0.08057000000000	-49.20466800000000	764.60478100000000	-48.74151900000000	0.03488600000000	0.00000000000000	-0.08990300000000	0.00000000000000	-6.84500500000000	0.00000000000000	0.00000000000000	-11.69271500000000	0.00000000000000	
23.60658400000000	-7.51888100000000	52.75967900000000	-13.40909400000000	0.29925400000000	0.00000000000000	0.08130600000000	-49.94579100000000	762.16668700000002	-48.40132200000000	0.03408200000000	0.00000000000000	-0.08976000000000	0.00000000000000	-7.60288300000000	0.00000000000000	0.00000000000000	-11.71985900000000	0.00000000000000	
23.60824200000000	-7.82444700000000	59.12258900000000	-14.50030500000000	0.30036900000000	0.00000000000000	0.08200100000000	-50.71168600000000	759.64171199999998	-48.05255600000000	0.03326900000000	0.00000000000000	-0.08961500000000	0.00000000000000	-8.29313300000000	0.00000000000000	0.00000000000000	-11.75274100000000	0.00000000000000	
23.60992400000000	-7.97039200000000	65.31433400000000	-15.42708800000000	0.30147800000000	0.00000000000000	0.08265900000000	-51.50141400000000	757.02763200000004	-47.69504600000000	0.03245100000000	0.00000000000000	-0.08946800000000	0.00000000000000	-8.90505700000000	0.00000000000000	0.00000000000000	-11.79123100000000	0.00000000000000	
23.61158000000000	-7.95415900000000	71.29515300000000	-16.18104300000000	0.30258200000000	0.00000000000000	0.08328300000000	-52.31393800000000	754.32213600000000	-47.32860500000000	0.03162600000000	0.00000000000000	-0.08931900000000	0.00000000000000	-9.43303100000000	0.00000000000000	0.00000000000000	-11.83518000000000	0.00000000000000	
23.61324600000000	-7.77981300000000	77.05088499999999	-16.76280400000000	0.30368500000000	0.00000000000000	0.08387700000000	-53.14812100000000	751.52282200000002	-46.95303200000000	0.03079700000000	0.00000000000000	-0.08916900000000	0.00000000000000	-9.87621400000000	0.00000000000000	0.00000000000000	-11.88442200000000	0.00000000000000	
23.61491300000000	-7.45689100000000	82.59024400000000	-17.18071200000000	0.30478500000000	0.00000000000000	0.08444400000000	-54.00273000000000	748.62721399999998	-46.56811900000000	0.02996300000000	0.00000000000000	-0.08901700000000	0.00000000000000	-10.23790500000000	0.00000000000000	0.00000000000000	-11.93876800000000	0.00000000000000	
23.61657600000000	-6.99899500000000	87.94068799999999	-17.44907700000000	0.30588300000000	0.00000000000000	0.08498700000000	-54.87644000000000	745.63276900000005	-46.17364500000000	0.02912700000000	0.00000000000000	-0.08886300000000	0.00000000000000	-10.52468100000000	0.00000000000000	0.00000000000000	-11.99801500000000	0.00000000000000	
23.61824900000000	-6.42230700000000	93.14345899999999	-17.58625700000000	0.30697900000000	0.00000000000000	0.08550600000000	-55.76783100000000	742.53688899999997	-45.76938600000000	0.02828700000000	0.00000000000000	-0.08870700000000	0.00000000000000	-10.74540700000000	0.00000000000000	0.00000000000000	-12.06194200000000	0.00000000000000	
23.61991700000000	-5.74413800000000	98.24835000000000	-17.61273000000000	0.30807100000000	0.00000000000000	0.08600500000000	-56.67539200000000	739.33692699999995	-45.35511300000000	0.02744600000000	0.00000000000000	-0.08855000000000	0.00000000000000	-10.91023800000000	0.00000000000000	0.00000000000000	-12.13031000000000	0.00000000000000	
23.62157500000000	-4.98164400000000	103.30867600000001	-17.54933200000000	0.30916000000000	0.00000000000000	0.08648500000000	-57.59752600000000	736.03020600000002	-44.93059400000000	0.02660500000000	0.00000000000000	-0.08839000000000	0.00000000000000	-11.02968200000000	0.00000000000000	0.00000000000000	-12.20286200000000	0.00000000000000	
